<svg width="60" height="60" viewBox="0 0 60 60" fill="none" xmlns="http://www.w3.org/2000/svg">
  <path d="M26.2117 37.1748C26.2117 37.4384 26.4213 37.6537 26.682 37.6537C26.9409 37.6537 27.1523 37.4402 27.1523 37.1748C27.1523 35.9498 25.9475 34.9706 24.3341 34.8092V34.3052C24.3341 34.0415 24.1245 33.8263 23.8638 33.8263C23.6049 33.8263 23.3935 34.0397 23.3935 34.3052V34.8092C21.7819 34.9706 20.5753 35.9499 20.5753 37.1748C20.5753 38.3997 21.7801 39.379 23.3935 39.5404V42.4064C22.3367 42.2683 21.5159 41.6801 21.5159 41.0003C21.5159 40.7367 21.3063 40.5214 21.0456 40.5214C20.7867 40.5214 20.5753 40.7349 20.5753 41.0003C20.5753 42.2253 21.7801 43.2045 23.3935 43.3659V43.8699C23.3935 44.1336 23.6031 44.3488 23.8638 44.3488C24.1227 44.3488 24.3341 44.1354 24.3341 43.8699V43.3659C25.9457 43.2045 27.1523 42.2252 27.1523 41.0003C27.1523 39.7754 25.9475 38.7961 24.3341 38.6347V35.7687C25.3909 35.9068 26.2117 36.495 26.2117 37.1748ZM21.5159 37.1748C21.5159 36.495 22.3385 35.9068 23.3953 35.7705V38.5791C22.3367 38.4428 21.5159 37.8545 21.5159 37.1748ZM26.2117 41.0003C26.2117 41.6801 25.3892 42.2683 24.3323 42.4046V39.596C25.3909 39.7341 26.2117 40.3206 26.2117 41.0003ZM23.8638 31.9145C19.9782 31.9145 16.8184 35.132 16.8184 39.0885C16.8184 43.0449 19.9782 46.2625 23.8638 46.2625C27.7494 46.2625 30.9093 43.0449 30.9093 39.0885C30.9093 35.132 27.7494 31.9145 23.8638 31.9145ZM23.8638 45.3047C20.4961 45.3047 17.7572 42.5158 17.7572 39.0866C17.7572 35.6574 20.4961 32.8685 23.8638 32.8685C27.2316 32.8685 29.9705 35.6574 29.9705 39.0866C29.9705 42.5158 27.2316 45.3047 23.8638 45.3047ZM44.8627 15.7928L37.3469 8.13989C37.2589 8.05022 37.1391 8 37.0158 8H16.3479C15.0533 8 14 9.0725 14 10.3907V49.6093C14 50.9275 15.0533 52 16.3479 52H42.6504C43.945 52 44.9982 50.9275 44.9982 49.6093L45 16.1318C45 16.0044 44.9508 15.8825 44.8627 15.7928ZM37.4845 9.63393L43.3972 15.6528H38.8934C38.1166 15.6528 37.4843 15.0089 37.4843 14.2179L37.4845 9.63393ZM42.6523 51.0439H16.3481C15.5713 51.0439 14.939 50.4001 14.939 49.6091V10.3924C14.939 9.60146 15.5713 8.95762 16.3481 8.95762H36.5457V14.2179C36.5457 15.5362 37.5989 16.6087 38.8935 16.6087H44.0596V49.6091C44.0614 50.4001 43.4291 51.0439 42.6523 51.0439ZM41.2432 43.8699C41.2432 44.1336 41.0336 44.3488 40.7729 44.3488H32.3184C32.0595 44.3488 31.8481 44.1354 31.8481 43.8699C31.8481 43.6063 32.0577 43.391 32.3184 43.391H40.7729C41.0319 43.3928 41.2432 43.6063 41.2432 43.8699ZM41.2432 39.0885C41.2432 39.3521 41.0336 39.5673 40.7729 39.5673L32.3184 39.5656C32.0595 39.5656 31.8481 39.3521 31.8481 39.0867C31.8481 38.823 32.0577 38.6078 32.3184 38.6078H40.7729C41.0319 38.6096 41.2432 38.823 41.2432 39.0885ZM41.2432 34.3052C41.2432 34.5688 41.0336 34.7841 40.7729 34.7841H32.3184C32.0595 34.7841 31.8481 34.5706 31.8481 34.3052C31.8481 34.0415 32.0577 33.8263 32.3184 33.8263H40.7729C41.0319 33.8263 41.2432 34.0415 41.2432 34.3052ZM41.2432 29.5219C41.2432 29.7855 41.0336 30.0008 40.7729 30.0008H18.2274C17.9685 30.0008 17.7572 29.7874 17.7572 29.5219C17.7572 29.2583 17.9668 29.043 18.2274 29.043H40.7729C41.0319 29.0448 41.2432 29.2582 41.2432 29.5219ZM41.2432 24.7404C41.2432 25.0041 41.0336 25.2193 40.7729 25.2193L18.2274 25.2175C17.9685 25.2175 17.7572 25.0041 17.7572 24.7387C17.7572 24.475 17.9668 24.2598 18.2274 24.2598H40.7729C41.0319 24.2616 41.2432 24.475 41.2432 24.7404ZM41.2432 19.9572C41.2432 20.2208 41.0336 20.436 40.7729 20.436H18.2274C17.9685 20.436 17.7572 20.2226 17.7572 19.9572C17.7572 19.6935 17.9668 19.4783 18.2274 19.4783H40.7729C41.0319 19.4783 41.2432 19.6935 41.2432 19.9572Z" fill="#6571FF"></path>
</svg>