<svg width="60" height="60" viewBox="0 0 100 100" fill="none" xmlns="http://www.w3.org/2000/svg">
  <g clipPath="url(#clip0_0_3)">
    <path d="M50 100C77.6142 100 100 77.6142 100 50C100 22.3858 77.6142 0 50 0C22.3858 0 0 22.3858 0 50C0 77.6142 22.3858 100 50 100Z" fill="white"></path>
    <path d="M26.5586 73.2487H34.578C35.1708 73.2487 35.7636 73.0869 36.2208 72.7631C36.947 72.3322 37.4589 71.6059 37.6208 70.7441L40.3945 56.5034C40.5778 55.5536 41.0866 54.6975 41.8333 54.0826C42.58 53.4677 43.5178 53.1324 44.4851 53.1347H53.5326C58.0087 53.1324 62.3007 51.3534 65.4659 48.1886C68.6312 45.0238 70.4107 40.7319 70.4136 36.2559V36.0656C70.368 31.654 68.5882 27.4375 65.4589 24.3275C63.8982 22.7536 62.0405 21.5054 59.9936 20.6553C57.9467 19.8051 55.7513 19.3699 53.5348 19.375H34.3395C33.6153 19.376 32.9148 19.6337 32.3625 20.1023C31.8103 20.5708 31.4419 21.22 31.323 21.9344L23.2992 69.425C23.2228 69.8968 23.2498 70.3796 23.3785 70.8399C23.5072 71.3002 23.7345 71.727 24.0445 72.0907C24.3546 72.4544 24.74 72.7464 25.1741 72.9464C25.6082 73.1463 26.0806 73.2495 26.5586 73.2487Z" fill="#6571FF"></path>
    <path d="M53.5348 55.8297H44.4895C44.1486 55.832 43.8187 55.9505 43.5542 56.1657C43.2897 56.3809 43.1065 56.6798 43.0348 57.0131L40.2611 71.2537C39.8302 73.5987 37.973 75.375 35.7111 75.8322L35.4705 77.2869C35.173 79.0369 36.5205 80.625 38.2967 80.625H45.3492C46.642 80.625 47.773 79.7106 48.0158 78.4156L50.4395 65.9512C50.7895 64.2297 52.2967 62.9894 54.0467 62.9894H61.9611C65.8803 62.9876 69.6386 61.4301 72.4101 58.659C75.1816 55.8879 76.7397 52.1299 76.742 48.2106C76.742 44.4131 75.342 40.9678 72.973 38.3559C71.9492 48.1822 63.6323 55.8297 53.5348 55.8297Z" fill="#6571FF"></path>
  </g>
  <defs>
    <clipPath id="clip0_0_3">
      <rect width="100" height="100" fill="white"></rect>
    </clipPath>
  </defs>
</svg>