<svg width="50" height="60" viewBox="0 0 60 60" fill="none" xmlns="http://www.w3.org/2000/svg">
<path d="M47.2817 8H9.35841C8.08487 8 7 9.08948 7 10.4158V14.7263C7 16.0526 8.08487 17.1421 9.35841 17.1421H47.2817C48.6024 17.1421 49.6401 16.0526 49.6873 14.7263V10.4632C49.6873 9.08947 48.6024 8 47.2817 8ZM47.2817 31.9211H9.35841C8.74523 31.9211 8.13204 32.1579 7.70752 32.6316C7.23584 33.1053 7 33.6737 7 34.3368V38.6474C7 39.9737 8.08487 41.0632 9.35841 41.0632H47.2817C48.6024 41.0632 49.6401 40.021 49.6873 38.6474V34.3368C49.6401 32.9631 48.6024 31.9211 47.2817 31.9211ZM30.7256 43.8579H9.35841C8.74523 43.8579 8.13204 44.0947 7.70752 44.5684C7.28301 45.0421 7 45.6105 7 46.2737V50.5842C7 51.9105 8.08487 53 9.35841 53H30.6785C31.9992 53 33.0369 51.9105 33.0369 50.6316V46.3211C33.084 44.9 32.0463 43.8105 30.7256 43.8579ZM49.6873 19.9368H9.35841C8.74523 19.9368 8.13204 20.1737 7.70752 20.6474C7.28301 21.121 7 21.6895 7 22.3526V26.6632C7 27.9895 8.08487 29.079 9.35841 29.079H49.6401C50.9608 29.079 51.9985 27.9895 51.9985 26.6632V22.3526C52.0457 21.0263 50.9608 19.9842 49.6873 19.9368Z" fill="#6571FF"/>
</svg>
