<svg width="60" height="60" viewBox="0 0 100 100" fill="none" xmlns="http://www.w3.org/2000/svg">
  <g clipPath="url(#clip0_31_5)">
    <path d="M50 100C77.6142 100 100 77.6142 100 50C100 22.3858 77.6142 0 50 0C22.3858 0 0 22.3858 0 50C0 77.6142 22.3858 100 50 100Z" fill="white"></path>
    <path d="M17.8335 65.6662C17.6814 66.218 17.3885 66.6232 16.9516 66.882C16.5157 67.1403 15.904 67.27 15.1143 67.27H12.6055L13.4864 64.0635H15.9952C16.7838 64.0635 17.3256 64.1921 17.6196 64.4544C17.9135 64.7166 17.9845 65.1175 17.8335 65.6717M20.4309 65.6024C20.7502 64.4445 20.6185 63.5538 20.0346 62.9303C19.4518 62.3117 18.429 62 16.9693 62H11.3704L8 74.2769H10.7201L12.0784 69.3285H13.8625C14.2629 69.3285 14.5781 69.3928 14.8082 69.5165C15.0388 69.6452 15.1741 69.8679 15.2157 70.1895L15.7012 74.2769H18.6155L18.1431 70.4666C18.0468 69.6155 17.648 69.1157 16.947 68.9673C17.8406 68.7149 18.5891 68.2943 19.1923 67.7104C19.7912 67.1308 20.2191 66.4043 20.4309 65.6073M27.043 69.8827C26.8149 70.714 26.4652 71.3425 25.9924 71.7829C25.519 72.2233 24.9534 72.441 24.2935 72.441C23.6214 72.441 23.1658 72.2282 22.925 71.7977C22.6838 71.3672 22.6757 70.7437 22.8997 69.9273C23.1237 69.1108 23.481 68.4724 23.9726 68.0122C24.4643 67.5521 25.039 67.322 25.6989 67.322C26.3578 67.322 26.8089 67.5446 27.0369 67.9865C27.2701 68.4304 27.2751 69.0653 27.0471 69.8916L27.043 69.8827ZM28.2351 65.5381L27.8945 66.7801C27.7475 66.3348 27.4622 65.9785 27.0405 65.7113C26.6178 65.449 26.0947 65.3154 25.4708 65.3154C24.7055 65.3154 23.9706 65.5084 23.2661 65.8944C22.5616 66.2803 21.9433 66.8246 21.4162 67.5273C20.8891 68.23 20.5039 69.0267 20.2556 69.9223C20.0123 70.8229 19.9616 71.6097 20.1086 72.2926C20.2607 72.9804 20.58 73.5049 21.0716 73.8711C21.5683 74.2422 22.2018 74.4253 22.9772 74.4253C23.5934 74.4284 24.2027 74.2982 24.7613 74.0443C25.3136 73.8011 25.8048 73.4431 26.2007 72.9952L25.8459 74.2897H28.4763L30.8782 65.5425H28.2427L28.2351 65.5381ZM40.3305 65.5381H32.6809L32.1462 67.4877H36.5972L30.7129 72.4509L30.2102 74.2818H38.1065L38.6412 72.3322H33.872L39.8465 67.2947M47.0637 69.8679C46.827 70.7289 46.4758 71.3761 46.012 71.7977C45.5483 72.2233 44.9867 72.4361 44.3273 72.4361C42.9488 72.4361 42.4957 71.58 42.966 69.8679C43.1991 69.0168 43.5519 68.3769 44.0232 67.9459C44.4946 67.5135 45.0658 67.2977 45.7373 67.2977C46.3962 67.2977 46.8412 67.512 47.0703 67.9435C47.2994 68.374 47.2973 69.0158 47.0637 69.8669M48.6034 65.8671C47.9978 65.499 47.2248 65.3149 46.2822 65.3149C45.3278 65.3149 44.4444 65.498 43.6314 65.8642C42.8219 66.2281 42.1104 66.7713 41.5535 67.4506C40.9807 68.1384 40.5687 68.945 40.3158 69.8654C40.0674 70.7823 40.037 71.5874 40.2296 72.2767C40.4222 72.9646 40.8277 73.494 41.4359 73.8602C42.0491 74.2294 42.8297 74.4129 43.7876 74.4129C44.7303 74.4129 45.6071 74.2279 46.4129 73.8597C47.2188 73.4896 47.9081 72.9641 48.4808 72.2713C49.0535 71.5815 49.464 70.7769 49.7174 69.8565C49.9708 68.9361 50.0013 68.1325 49.8087 67.4417C49.6161 66.7539 49.2157 66.2244 48.6125 65.8558M57.9939 67.8747L58.668 65.4945C58.4399 65.3807 58.1409 65.3213 57.7658 65.3213C57.1627 65.3213 56.5849 65.4668 56.0274 65.7617C55.548 66.0121 55.1405 66.3654 54.7958 66.8078L55.1455 65.5262L54.3818 65.5292H52.5065L50.0889 74.2729H52.7564L54.0107 69.7021C54.1932 69.0375 54.5216 68.5145 54.9955 68.1434C55.4669 67.7708 56.0548 67.5842 56.7643 67.5842C57.2002 67.5842 57.6057 67.6817 57.9909 67.8762M65.4159 69.9099C65.1878 70.7264 64.8432 71.3499 64.3718 71.7804C63.9005 72.2129 63.3328 72.4287 62.6739 72.4287C62.0151 72.4287 61.564 72.2109 61.3258 71.7755C61.0825 71.3375 61.0774 70.7066 61.3055 69.8773C61.5336 69.0484 61.8833 68.4126 62.3648 67.9722C62.8463 67.5283 63.4139 67.3066 64.0728 67.3066C64.7215 67.3066 65.1574 67.5342 65.3905 67.9944C65.6237 68.4546 65.6287 69.093 65.4047 69.9094M67.2699 65.8815C66.7757 65.4955 66.1447 65.3025 65.3794 65.3025C64.7089 65.3025 64.0697 65.451 63.4636 65.7509C62.8579 66.0502 62.3663 66.4585 61.9887 66.9751L61.9978 66.9157L62.4454 65.5252H59.8403L59.1763 67.9449L59.1561 68.0291L56.4192 77.997H59.0902L60.4687 72.9794C60.6056 73.4257 60.8843 73.7761 61.3101 74.0294C61.7358 74.2818 62.2614 74.407 62.8863 74.407C63.6618 74.407 64.4017 74.2239 65.1037 73.8577C65.8082 73.4906 66.4164 72.9621 66.9333 72.2792C67.4503 71.5963 67.834 70.8046 68.0787 69.909C68.3271 69.0118 68.3778 68.2117 68.2359 67.5115C68.0914 66.8103 67.7716 66.2675 67.278 65.8835M76.1297 69.8743C75.9016 70.7007 75.5519 71.3341 75.0806 71.7695C74.6092 72.208 74.0416 72.4262 73.3827 72.4262C72.7086 72.4262 72.2525 72.2134 72.0143 71.7829C71.771 71.3524 71.7659 70.7289 71.9889 69.9124C72.2119 69.0959 72.5677 68.4576 73.0593 67.9974C73.551 67.5372 74.1262 67.3076 74.7861 67.3076C75.445 67.3076 75.891 67.5303 76.1241 67.9707C76.3573 68.4126 76.3588 69.0474 76.1317 69.8758L76.1297 69.8743ZM77.3207 65.5272L76.9796 66.7692C76.8327 66.3214 76.5488 65.9651 76.1282 65.7004C75.7024 65.4361 75.1804 65.3045 74.557 65.3045C73.7917 65.3045 73.0527 65.4975 72.3472 65.8835C71.6428 66.2694 71.0244 66.8108 70.4973 67.5115C69.9702 68.2122 69.585 69.0108 69.3367 69.9065C69.0909 70.8056 69.0427 71.5939 69.1897 72.2797C69.3382 72.9626 69.658 73.4901 70.1527 73.8582C70.6463 74.2244 71.2829 74.4095 72.0584 74.4095C72.6818 74.4095 73.2773 74.2828 73.8424 74.0285C74.3934 73.7841 74.8833 73.4256 75.2782 72.9779L74.9234 74.2734H77.5539L79.9552 65.5297H77.3248L77.3207 65.5272ZM90.9985 65.5302L91 65.5277H89.3832C89.3315 65.5277 89.2859 65.5302 89.2388 65.5311H88.4L87.9692 66.115L87.8627 66.2536L87.8171 66.3229L84.4087 70.9585L83.7042 65.5302H80.9126L82.3267 73.7791L79.2046 78H81.9871L82.7423 76.9544C82.7635 76.9237 82.7828 76.898 82.8082 76.8653L83.69 75.6431L83.7154 75.6085L87.6651 70.1405L90.9949 65.5386L91 65.5356H90.9985V65.5302Z" fill="#6571FF"></path>
    <path d="M42.3868 28.1917L40 37.1123L53.6614 28.1409L44.7266 61.9923L53.8008 62L67 12" fill="#6571FF"></path>
    <path d="M28.4391 49.22L25 62H42.0272L51 32L28.4391 49.22Z" fill="#6571FF"></path>
  </g>
  <defs>
    <clipPath id="clip0_31_5">
      <rect width="100" height="100" fill="white"></rect>
    </clipPath>
  </defs>
</svg>