<svg width="60" height="60" viewBox="0 0 100 100" fill="none" xmlns="http://www.w3.org/2000/svg">
  <g clipPath="url(#clip0_1_2)">
    <path d="M50 100C77.6142 100 100 77.6142 100 50C100 22.3858 77.6142 0 50 0C22.3858 0 0 22.3858 0 50C0 77.6142 22.3858 100 50 100Z" fill="white"></path>
    <path d="M50 85C69.33 85 85 69.33 85 50C85 30.67 69.33 15 50 15C30.67 15 15 30.67 15 50C15 69.33 30.67 85 50 85Z" fill="#6571FF"></path>
    <path fillRule="evenodd" clipRule="evenodd" d="M77.1581 50.3095C77.1581 46.4465 75.287 43.3984 71.7107 43.3984C68.1193 43.3984 65.9465 46.4465 65.9465 50.2793C65.9465 54.8212 68.5117 57.115 72.1936 57.115C73.9892 57.115 75.3472 56.7076 76.3735 56.1342V53.1162C75.3474 53.6293 74.1704 53.9461 72.6764 53.9461C71.2127 53.9461 69.915 53.433 69.749 51.6525H77.1279C77.1279 51.4565 77.1581 50.6717 77.1581 50.3095ZM69.7038 48.876C69.7038 47.1709 70.745 46.4617 71.6956 46.4617C72.6161 46.4617 73.597 47.1709 73.597 48.876H69.7038ZM60.1218 43.3985C58.6431 43.3985 57.6923 44.0926 57.1642 44.5755L56.968 43.64H53.6483V61.2346L57.4208 60.4348L57.4359 56.1644C57.979 56.5568 58.7788 57.115 60.1067 57.115C62.8077 57.115 65.2674 54.9421 65.2674 50.1586C65.2523 45.7826 62.7626 43.3985 60.1218 43.3985ZM59.2165 53.7953C58.3262 53.7953 57.798 53.4784 57.4359 53.0861L57.4208 47.4879C57.8132 47.0503 58.3564 46.7485 59.2165 46.7485C60.5897 46.7485 61.5403 48.2877 61.5403 50.2644C61.5403 52.2863 60.6047 53.7953 59.2165 53.7953ZM48.4575 42.5082L52.2451 41.6934V38.6302L48.4575 39.43V42.5082ZM48.4575 43.655H52.2451V56.8585H48.4575V43.655ZM44.3984 44.7717L44.1569 43.6551H40.8975V56.8586H44.67V47.9105C45.5603 46.7485 47.0693 46.9599 47.537 47.1259V43.6553C47.0541 43.474 45.2887 43.142 44.3984 44.7717ZM36.8535 40.3806L33.1717 41.1652L33.1567 53.252C33.1567 55.4853 34.8316 57.13 37.0649 57.13C38.3022 57.13 39.2076 56.9036 39.7056 56.6321V53.5689C39.2227 53.7651 36.8386 54.4592 36.8386 52.2259V46.8691H39.7056V43.655H36.8386L36.8535 40.3806ZM26.6529 47.4878C26.6529 46.8993 27.1358 46.6729 27.9355 46.6729C29.0823 46.6729 30.531 47.0199 31.6778 47.6387V44.0927C30.4253 43.5947 29.188 43.3985 27.9355 43.3985C24.8723 43.3985 22.8352 44.998 22.8352 47.6689C22.8352 51.8337 28.5693 51.1698 28.5693 52.9654C28.5693 53.6595 27.9657 53.886 27.1207 53.886C25.8682 53.886 24.2687 53.3728 23.0012 52.6787V56.2701C24.4045 56.8737 25.8229 57.1301 27.1207 57.1301C30.2593 57.1301 32.4171 55.5759 32.4171 52.8749C32.4021 48.3781 26.6529 49.1779 26.6529 47.4878Z" fill="white"></path>
  </g>
  <defs>
    <clipPath id="clip0_1_2">
      <rect width="100" height="100" fill="white"></rect>
    </clipPath>
  </defs>
</svg>